<?xml version="1.0" encoding="UTF-8" standalone="no"?>
<!-- Created with Inkscape (http://www.inkscape.org/) -->

<svg
   xmlns:dc="http://purl.org/dc/elements/1.1/"
   xmlns:cc="http://creativecommons.org/ns#"
   xmlns:rdf="http://www.w3.org/1999/02/22-rdf-syntax-ns#"
   xmlns:svg="http://www.w3.org/2000/svg"
   xmlns="http://www.w3.org/2000/svg"
   xmlns:sodipodi="http://sodipodi.sourceforge.net/DTD/sodipodi-0.dtd"
   xmlns:inkscape="http://www.inkscape.org/namespaces/inkscape"
   width="22"
   height="22"
   viewBox="0 0 5.820833 5.8208335"
   version="1.1"
   id="svg8"
   inkscape:version="0.92.5 (2060ec1f9f, 2020-04-08)"
   sodipodi:docname="wl-22.svg"
   inkscape:export-filename="/data/1-ai-data/dev/wasta-images/wasta-images/2020-logos/ws-dark-128.png"
   inkscape:export-xdpi="96"
   inkscape:export-ydpi="96"
   style="enable-background:new">
  <defs
     id="defs2" />
  <sodipodi:namedview
     id="base"
     pagecolor="#ffffff"
     bordercolor="#666666"
     borderopacity="1.0"
     inkscape:pageopacity="0.0"
     inkscape:pageshadow="2"
     inkscape:zoom="32"
     inkscape:cx="12.268277"
     inkscape:cy="12.275958"
     inkscape:document-units="px"
     inkscape:current-layer="g933"
     showgrid="false"
     units="px"
     inkscape:pagecheckerboard="true"
     inkscape:window-width="1878"
     inkscape:window-height="1056"
     inkscape:window-x="42"
     inkscape:window-y="0"
     inkscape:window-maximized="1"
     scale-x="0.26458"
     fit-margin-top="0"
     fit-margin-left="0"
     fit-margin-right="0"
     fit-margin-bottom="0" />
  <metadata
     id="metadata5">
    <rdf:RDF>
      <cc:Work
         rdf:about="">
        <dc:format>image/svg+xml</dc:format>
        <dc:type
           rdf:resource="http://purl.org/dc/dcmitype/StillImage" />
        <dc:title></dc:title>
      </cc:Work>
    </rdf:RDF>
  </metadata>
  <g
     style="display:inline;opacity:1"
     transform="translate(0,-291.17913)"
     id="g1092"
     inkscape:groupmode="layer"
     inkscape:label="bg-turq"
     sodipodi:insensitive="true">
    <flowRoot
       transform="matrix(0.26458333,0,0,0.26458333,0,161.53331)"
       style="font-style:normal;font-variant:normal;font-weight:normal;font-stretch:normal;font-size:40px;line-height:1.25;font-family:arial;-inkscape-font-specification:arial;letter-spacing:0px;word-spacing:0px;fill:#000000;fill-opacity:1;stroke:none"
       id="flowRoot1088"
       xml:space="preserve"><flowRegion
         id="flowRegion1084"><rect
           y="-124.3961"
           x="332.34018"
           height="485.88336"
           width="661.6499"
           id="rect1082" /></flowRegion><flowPara
         id="flowPara1086" /></flowRoot>    <ellipse
       cy="294.08954"
       cx="2.9104168"
       id="circle1090"
       style="fill:#00b1d5;fill-opacity:1;stroke:#00add7;stroke-width:0;stroke-linecap:round;stroke-miterlimit:4;stroke-dasharray:none;stroke-opacity:1"
       rx="2.6375649"
       ry="2.6375659" />
  </g>
  <g
     inkscape:label="vert fold 30"
     inkscape:groupmode="layer"
     id="g933"
     style="display:inline;opacity:0.3"
     transform="translate(0,-291.17913)"
     sodipodi:insensitive="true">
    <path
       style="fill:#404756;fill-opacity:1;stroke:#404756;stroke-width:0;stroke-linecap:round;stroke-miterlimit:4;stroke-dasharray:none;stroke-opacity:1"
       d="m 2.9104163,291.17913 c 1.6073788,0 2.9104164,1.30304 2.9104167,2.91041 3e-7,1.60738 -1.3030376,2.91042 -2.9104167,2.91042"
       id="path921"
       inkscape:connector-curvature="0"
       sodipodi:nodetypes="csc" />
    <ellipse
       style="fill:#ffffff;fill-opacity:0.00171533;stroke:#bebebe;stroke-width:0.26458332;stroke-linecap:round;stroke-miterlimit:4;stroke-dasharray:none;stroke-opacity:1"
       id="ellipse923"
       cx="437.78748"
       cy="270.27301"
       rx="15.501633"
       ry="20.312483" />
    <flowRoot
       xml:space="preserve"
       id="flowRoot931"
       style="font-style:normal;font-variant:normal;font-weight:normal;font-stretch:normal;font-size:40px;line-height:1.25;font-family:arial;-inkscape-font-specification:arial;letter-spacing:0px;word-spacing:0px;fill:#000000;fill-opacity:1;stroke:none"
       transform="matrix(0.26458333,0,0,0.26458333,0,161.53331)"><flowRegion
         id="flowRegion927"><rect
           id="rect925"
           width="661.6499"
           height="485.88336"
           x="332.34018"
           y="-124.3961" /></flowRegion><flowPara
         id="flowPara929" /></flowRoot>  </g>
  <g
     inkscape:label="horiz fold 30"
     inkscape:groupmode="layer"
     id="g919"
     transform="translate(0,-291.17913)"
     style="display:inline;opacity:0.3"
     sodipodi:insensitive="true">
    <path
       style="fill:#404756;fill-opacity:1;stroke:#404756;stroke-width:0;stroke-linecap:round;stroke-miterlimit:4;stroke-dasharray:none;stroke-opacity:1"
       d="m 5.820833,294.08954 c 3e-7,1.60738 -1.3030376,2.91042 -2.9104167,2.91042 -1.6073788,0 -2.91041664324279,-1.30304 -2.910416385430266,-2.91042"
       id="path907"
       inkscape:connector-curvature="0"
       sodipodi:nodetypes="csc" />
    <ellipse
       style="fill:#ffffff;fill-opacity:0.00171533;stroke:#bebebe;stroke-width:0.26458332;stroke-linecap:round;stroke-miterlimit:4;stroke-dasharray:none;stroke-opacity:1"
       id="ellipse909"
       cx="437.78748"
       cy="270.27301"
       rx="15.501633"
       ry="20.312483" />
    <flowRoot
       xml:space="preserve"
       id="flowRoot917"
       style="font-style:normal;font-variant:normal;font-weight:normal;font-stretch:normal;font-size:40px;line-height:1.25;font-family:arial;-inkscape-font-specification:arial;letter-spacing:0px;word-spacing:0px;fill:#000000;fill-opacity:1;stroke:none"
       transform="matrix(0.26458333,0,0,0.26458333,0,161.53331)"><flowRegion
         id="flowRegion913"><rect
           id="rect911"
           width="661.6499"
           height="485.88336"
           x="332.34018"
           y="-124.3961" /></flowRegion><flowPara
         id="flowPara915" /></flowRoot>  </g>
  <g
     inkscape:label="ring-white"
     inkscape:groupmode="layer"
     id="g1042"
     transform="translate(0,-291.17913)"
     style="display:inline"
     sodipodi:insensitive="true">
    <path
       style="fill:#ffffff;fill-opacity:1;stroke:#ffffff;stroke-width:0;stroke-linecap:round;stroke-miterlimit:4;stroke-dasharray:none;stroke-opacity:1"
       d="M 2.9104163,291.17913 A 2.9104163,2.9104162 0 0 0 -5.1055273e-8,294.08954 2.9104163,2.9104162 0 0 0 2.9104163,296.99996 a 2.9104163,2.9104162 0 0 0 2.910417,-2.91042 2.9104163,2.9104162 0 0 0 -2.910417,-2.91041 z m 0,0.27285 a 2.6375651,2.6375652 0 0 1 2.6375655,2.63756 2.6375651,2.6375652 0 0 1 -2.6375655,2.63757 2.6375651,2.6375652 0 0 1 -2.63756481,-2.63757 2.6375651,2.6375652 0 0 1 2.63756481,-2.63756 z"
       id="circle1030"
       inkscape:connector-curvature="0" />
    <ellipse
       style="fill:#ffffff;fill-opacity:0.00171533;stroke:#bebebe;stroke-width:0.26458332;stroke-linecap:round;stroke-miterlimit:4;stroke-dasharray:none;stroke-opacity:1"
       id="ellipse1032"
       cx="437.78748"
       cy="270.27301"
       rx="15.501633"
       ry="20.312483" />
    <flowRoot
       xml:space="preserve"
       id="flowRoot1040"
       style="font-style:normal;font-variant:normal;font-weight:normal;font-stretch:normal;font-size:40px;line-height:1.25;font-family:arial;-inkscape-font-specification:arial;letter-spacing:0px;word-spacing:0px;fill:#000000;fill-opacity:1;stroke:none"
       transform="matrix(0.26458333,0,0,0.26458333,0,161.53331)"><flowRegion
         id="flowRegion1036"><rect
           id="rect1034"
           width="661.6499"
           height="485.88336"
           x="332.34018"
           y="-124.3961" /></flowRegion><flowPara
         id="flowPara1038" /></flowRoot>  </g>
  <g
     style="display:inline;opacity:1"
     transform="translate(0,-129.64581)"
     inkscape:label="w[L] narrow"
     id="g1059"
     inkscape:groupmode="layer"
     sodipodi:insensitive="true">
    <g
       aria-label="w[L]"
       style="font-style:normal;font-variant:normal;font-weight:normal;font-stretch:normal;font-size:59.1388588px;line-height:1.25;font-family:arial;-inkscape-font-specification:arial;letter-spacing:0px;word-spacing:0px;fill:#ffffff;fill-opacity:1;stroke:#ffffff;stroke-width:4.23333311;stroke-miterlimit:4;stroke-dasharray:none;stroke-opacity:1"
       id="text1057"
       transform="matrix(0.02455357,0,0,0.02455357,-0.41577394,132.55622)">
      <path
         d="M 70.234214,34.802105 H 59.921815 Q 56.247282,22.593172 52.928349,6.7097069 49.727949,-9.1737587 47.001682,-27.427891 h 10.075333 q 0.474133,5.096933 1.4224,11.971866 0.948266,6.7563996 2.015066,13.9869324 1.185334,7.1119996 2.370667,13.8683986 1.185333,6.637867 2.252133,11.3792 1.0668,-4.741333 2.370667,-11.616266 1.422399,-6.874933 2.726266,-14.1054659 1.4224,-7.2305328 2.607733,-13.9869321 1.185333,-6.874933 1.896533,-11.497733 h 9.6012 q 0.474133,4.6228 1.4224,11.379199 1.0668,6.7564 2.133599,14.1054661 1.185334,7.2305329 2.370667,14.1054659 1.185333,6.874933 2.1336,11.616266 1.0668,-4.741333 2.252133,-11.497733 1.185333,-6.7563994 2.252133,-13.8683989 1.185333,-7.1119995 2.1336,-13.8683991 0.948267,-6.874933 1.422398,-11.971866 h 9.71973 q -2.72626,18.2541323 -6.04519,34.1375979 -3.2004,15.8834651 -6.874938,28.0923981 H 87.303013 Q 86.354746,31.127572 85.169413,25.437972 84.102613,19.629839 82.91728,13.110506 81.85048,6.5911736 80.902213,0.07184067 79.953947,-6.5660255 79.242747,-12.018559 q -0.7112,5.4525335 -1.896533,12.09039967 -1.185334,6.51933293 -2.4892,13.03866533 -1.303867,6.519333 -2.607733,12.327466 -1.185334,5.6896 -2.015067,9.364133 z"
         style="font-style:normal;font-variant:normal;font-weight:normal;font-stretch:normal;font-size:118.5333252px;font-family:'Ubuntu Condensed';-inkscape-font-specification:'Ubuntu Condensed, ';letter-spacing:0px;fill:#ffffff;fill-opacity:1;stroke:#ffffff;stroke-width:4.23333311;stroke-linecap:round;stroke-linejoin:miter;stroke-miterlimit:4;stroke-dasharray:none;stroke-opacity:1"
         id="path966"
         inkscape:connector-curvature="0" />
      <path
         d="m 123.6057,-58.009489 h 21.45453 v 8.060266 h -11.7348 v 98.619727 h 11.7348 V 56.73077 H 123.6057 Z"
         style="font-style:normal;font-variant:normal;font-weight:normal;font-stretch:normal;font-size:118.5333252px;font-family:'Ubuntu Condensed';-inkscape-font-specification:'Ubuntu Condensed, ';letter-spacing:0px;fill:#ffffff;fill-opacity:1;stroke:#ffffff;stroke-width:4.23333311;stroke-linecap:round;stroke-linejoin:miter;stroke-miterlimit:4;stroke-dasharray:none;stroke-opacity:1"
         id="path968"
         inkscape:connector-curvature="0" />
      <path
         d="m 192.38466,25.675039 v 9.127066 h -36.6268 v -82.143594 h 10.668 v 73.016528 z"
         style="font-style:normal;font-variant:normal;font-weight:normal;font-stretch:normal;font-size:118.5333252px;font-family:'Ubuntu Condensed';-inkscape-font-specification:'Ubuntu Condensed, ';letter-spacing:0px;fill:#ffffff;fill-opacity:1;stroke:#ffffff;stroke-width:4.23333311;stroke-linecap:round;stroke-linejoin:miter;stroke-miterlimit:4;stroke-dasharray:none;stroke-opacity:1"
         id="path970"
         inkscape:connector-curvature="0" />
      <path
         d="m 217.51002,56.73077 h -21.45453 v -8.060266 h 11.7348 v -98.619727 h -11.7348 v -8.060266 h 21.45453 z"
         style="font-style:normal;font-variant:normal;font-weight:normal;font-stretch:normal;font-size:118.5333252px;font-family:'Ubuntu Condensed';-inkscape-font-specification:'Ubuntu Condensed, ';letter-spacing:0px;fill:#ffffff;fill-opacity:1;stroke:#ffffff;stroke-width:4.23333311;stroke-linecap:round;stroke-linejoin:miter;stroke-miterlimit:4;stroke-dasharray:none;stroke-opacity:1"
         id="path972"
         inkscape:connector-curvature="0" />
    </g>
  </g>
</svg>
